<svg width="24" height="24" viewBox="0 0 24 24" fill="none" xmlns="http://www.w3.org/2000/svg">
  <path d="M12 17.5C11.1716 17.5 10.5 16.8284 10.5 16C10.5 15.1716 11.1716 14.5 12 14.5C12.8284 14.5 13.5 15.1716 13.5 16C13.5 16.8284 12.8284 17.5 12 17.5Z" fill="#637381"/>
  <path d="M12 11.5C11.1716 11.5 10.5 10.8284 10.5 10C10.5 9.17157 11.1716 8.5 12 8.5C12.8284 8.5 13.5 9.17157 13.5 10C13.5 10.8284 12.8284 11.5 12 11.5Z" fill="#637381"/>
  <path d="M12 5.5C11.1716 5.5 10.5 4.82843 10.5 4C10.5 3.17157 11.1716 2.5 12 2.5C12.8284 2.5 13.5 3.17157 13.5 4C13.5 4.82843 12.8284 5.5 12 5.5Z" fill="#637381"/>
  <path fill-rule="evenodd" clip-rule="evenodd" d="M12 22C8.13401 22 4.60101 20.0501 1.75736 16.7574C-0.0852879 14.9147 -0.0852879 11.5853 1.75736 9.74264C4.60101 6.44993 8.13401 4.5 12 4.5C15.866 4.5 19.399 6.44993 22.2426 9.74264C24.0853 11.5853 24.0853 14.9147 22.2426 16.7574C19.399 20.0501 15.866 22 12 22ZM12 2.5C7.30558 2.5 2.5 5.86599 2.5 12C2.5 18.134 7.30558 21.5 12 21.5C16.6944 21.5 21.5 18.134 21.5 12C21.5 5.86599 16.6944 2.5 12 2.5Z" fill="#637381"/>
</svg>